HIERARCHY
ROOT hip
{
  OFFSET 0 0 0
  CHANNELS 6 Xposition Yposition Zposition Zrotation Yrotation Xrotation
  JOINT abdomen
  {
    OFFSET 0 20.6881 -0.73152
    CHANNELS 3 Zrotation Xrotation Yrotation
    JOINT chest
    {
      OFFSET 0 11.7043 -0.48768
      CHANNELS 3 Zrotation Xrotation Yrotation
      JOINT neck
      {
        OFFSET 0 22.1894 -2.19456
        CHANNELS 3 Zrotation Xrotation Yrotation
        JOINT head
        {
          OFFSET -0.24384 7.07133 1.2192
          CHANNELS 3 Zrotation Xrotation Yrotation
          JOINT leftEye
          {
            OFFSET 4.14528 8.04674 8.04672
            CHANNELS 3 Zrotation Xrotation Yrotation
            End Site
            {
              OFFSET 1 0 0
            }
          }
          JOINT rightEye
          {
            OFFSET -3.6576 8.04674 8.04672
            CHANNELS 3 Zrotation Xrotation Yrotation
            End Site
            {
              OFFSET 1 0 0
            }
          }
        }
      }
      JOINT rCollar
      {
        OFFSET -2.68224 19.2634 -4.8768
        CHANNELS 3 Zrotation Xrotation Yrotation
        JOINT rShldr
        {
          OFFSET -8.77824 -1.95073 1.46304
          CHANNELS 3 Zrotation Xrotation Yrotation
          JOINT rForeArm
          {
            OFFSET -28.1742 -1.7115 0.48768
            CHANNELS 3 Zrotation Xrotation Yrotation
            JOINT rHand
            {
              OFFSET -22.5879 0.773209 7.07136
              CHANNELS 3 Zrotation Xrotation Yrotation
              JOINT rThumb1
              {
                OFFSET -1.2192 -0.487915 3.41376
                CHANNELS 3 Zrotation Xrotation Yrotation
                JOINT rThumb2
                {
                  OFFSET -3.37035 -0.52449 3.41376
                  CHANNELS 3 Zrotation Xrotation Yrotation
                  End Site
                  {
                    OFFSET -1.78271 -1.18214 1.43049
                  }
                }
              }
              JOINT rIndex1
              {
                OFFSET -7.75947 0.938293 5.60832
                CHANNELS 3 Zrotation Xrotation Yrotation
                JOINT rIndex2
                {
                  OFFSET -2.54057 -0.884171 1.56538
                  CHANNELS 3 Zrotation Xrotation Yrotation
                  End Site
                  {
                    OFFSET -1.62519 -0.234802 1.16502
                  }
                }
              }
              JOINT rMid1
              {
                OFFSET -8.24714 1.18213 3.41376
                CHANNELS 3 Zrotation Xrotation Yrotation
                JOINT rMid2
                {
                  OFFSET -3.10165 -0.590103 1.0647
                  CHANNELS 3 Zrotation Xrotation Yrotation
                  End Site
                  {
                    OFFSET -2.48547 -0.328903 0.83742
                  }
                }
              }
              JOINT rRing1
              {
                OFFSET -8.82822 0.546677 1.51678
                CHANNELS 3 Zrotation Xrotation Yrotation
                JOINT rRing2
                {
                  OFFSET -2.60934 -0.819778 -0.0198488
                  CHANNELS 3 Zrotation Xrotation Yrotation
                  End Site
                  {
                    OFFSET -2.33842 -0.294052 0.168128
                  }
                }
              }
              JOINT rPinky1
              {
                OFFSET -8.27202 -0.0477905 -0.4584
                CHANNELS 3 Zrotation Xrotation Yrotation
                JOINT rPinky2
                {
                  OFFSET -1.82734 -0.647385 -0.700984
                  CHANNELS 3 Zrotation Xrotation Yrotation
                  End Site
                  {
                    OFFSET -1.69225 -0.51767 -0.607171
                  }
                }
              }
            }
          }
        }
      }
      JOINT lCollar
      {
        OFFSET 2.68224 19.2634 -4.8768
        CHANNELS 3 Zrotation Xrotation Yrotation
        JOINT lShldr
        {
          OFFSET 8.77824 -1.95073 1.46304
          CHANNELS 3 Zrotation Xrotation Yrotation
          JOINT lForeArm
          {
            OFFSET 28.1742 -1.7115 0.48768
            CHANNELS 3 Zrotation Xrotation Yrotation
            JOINT lHand
            {
              OFFSET 22.5879 0.773209 7.07136
              CHANNELS 3 Zrotation Xrotation Yrotation
              JOINT lThumb1
              {
                OFFSET 1.2192 -0.487915 3.41376
                CHANNELS 3 Zrotation Xrotation Yrotation
                JOINT lThumb2
                {
                  OFFSET 3.37035 -0.52449 3.41376
                  CHANNELS 3 Zrotation Xrotation Yrotation
                  End Site
                  {
                    OFFSET 1.78271 -1.18214 1.43049
                  }
                }
              }
              JOINT lIndex1
              {
                OFFSET 7.75947 0.938293 5.60832
                CHANNELS 3 Zrotation Xrotation Yrotation
                JOINT lIndex2
                {
                  OFFSET 2.54057 -0.884171 1.56538
                  CHANNELS 3 Zrotation Xrotation Yrotation
                  End Site
                  {
                    OFFSET 1.62519 -0.234802 1.16502
                  }
                }
              }
              JOINT lMid1
              {
                OFFSET 8.24714 1.18213 3.41376
                CHANNELS 3 Zrotation Xrotation Yrotation
                JOINT lMid2
                {
                  OFFSET 3.10165 -0.590103 1.0647
                  CHANNELS 3 Zrotation Xrotation Yrotation
                  End Site
                  {
                    OFFSET 2.48547 -0.328903 0.83742
                  }
                }
              }
              JOINT lRing1
              {
                OFFSET 8.82822 0.546677 1.51678
                CHANNELS 3 Zrotation Xrotation Yrotation
                JOINT lRing2
                {
                  OFFSET 2.60934 -0.819778 -0.0198488
                  CHANNELS 3 Zrotation Xrotation Yrotation
                  End Site
                  {
                    OFFSET 2.33842 -0.294052 0.168128
                  }
                }
              }
              JOINT lPinky1
              {
                OFFSET 8.27202 -0.0477905 -0.4584
                CHANNELS 3 Zrotation Xrotation Yrotation
                JOINT lPinky2
                {
                  OFFSET 1.82734 -0.647385 -0.700984
                  CHANNELS 3 Zrotation Xrotation Yrotation
                  End Site
                  {
                    OFFSET 1.69225 -0.51767 -0.607171
                  }
                }
              }
            }
          }
        }
      }
    }
  }
  JOINT rButtock
  {
    OFFSET -8.77824 4.35084 1.2192
    CHANNELS 3 Zrotation Xrotation Yrotation
    JOINT rThigh
    {
      OFFSET 0 -1.70687 -2.19456
      CHANNELS 3 Zrotation Xrotation Yrotation
      JOINT rShin
      {
        OFFSET 0 -36.8199 0.73152
        CHANNELS 3 Zrotation Xrotation Yrotation
        JOINT rFoot
        {
          OFFSET 0.73152 -45.1104 -5.12064
          CHANNELS 3 Zrotation Xrotation Yrotation
          End Site
          {
            OFFSET -1.1221 -3.69964 12.103
          }
        }
      }
    }
  }
  JOINT lButtock
  {
    OFFSET 8.77824 4.35084 1.2192
    CHANNELS 3 Zrotation Xrotation Yrotation
    JOINT lThigh
    {
      OFFSET 0 -1.70687 -2.19456
      CHANNELS 3 Zrotation Xrotation Yrotation
      JOINT lShin
      {
        OFFSET 0 -36.8199 0.73152
        CHANNELS 3 Zrotation Xrotation Yrotation
        JOINT lFoot
        {
          OFFSET -0.73152 -45.1104 -5.12064
          CHANNELS 3 Zrotation Xrotation Yrotation
          End Site
          {
            OFFSET 1.1221 -3.69964 12.103
          }
        }
      }
    }
  }
}
MOTION
Frames:	4
Frame Time:	0.03333
-2.74242777377367 0.16803313046693802 1.6790702939033508 -0.31948938965797424 -1.1813923120498657 1.367530107498169 -0.19730821251869202 0.6863674521446228 -0.16077710688114166 1.3321713209152222 -1.4878484010696411 -0.5046708583831787 0.8375130295753479 0.37739330530166626 1.2899625301361084 -1.376624584197998 -1.775804042816162 1.4014462232589722 1.0232468843460083 0.11639592796564102 -0.6417654752731323 -1.2787169218063354 0.2098381072282791 -0.7412302494049072 -0.8783072829246521 1.2019777297973633 -1.7937372922897339 -0.8243215680122375 -1.1973779201507568 0.6823095083236694 0.0837237760424614 -1.0917856693267822 -2.0222671031951904 0.12135335057973862 -1.3495463132858276 0.9875428676605225 -0.9928726553916931 0.7936968803405762 0.6915770769119263 0.7826666831970215 -0.7732934951782227 -1.0993502140045166 0.6575582027435303 -0.17698751389980316 -0.027993792667984962 -1.670211672782898 -1.784716010093689 -0.8282299637794495 1.3593202829360962 0.709663450717926 -0.9709979891777039 1.4903838634490967 1.4005773067474365 -1.0853867530822754 0.613323986530304 1.0599550008773804 0.35842740535736084 -0.07652420550584793 -0.11222772300243378 1.2690150737762451 0.28092193603515625 -0.3907988965511322 -0.3677898049354553 0.18289466202259064 -0.10523556172847748 0.5530751347541809 -0.5584211349487305 -0.6361191868782043 -1.1599763631820679 0.7955788969993591 0.2381858378648758 0.19737039506435394 -1.3483728170394897 -0.2073088437318802 1.6480064392089844 -1.1977450847625732 -0.6619106531143188 -1.6491382122039795 -0.4269062578678131 0.9795166254043579 0.38729456067085266 -0.3451908826828003 0.7276149988174438 0.3067390024662018 -1.3899624347686768 0.22106793522834778 -0.26396864652633667 -0.45356062054634094 -1.19181489944458 0.5208463072776794 0.7070985436439514 0.6152416467666626 0.8851960301399231 0.5846047401428223 1.7783108949661255 0.04969516396522522 0.8537705540657043 0.9494044780731201 -0.6836226582527161 -1.6218870878219604 -0.12783312797546387 0.49172043800354004 -0.8181481957435608 1.8822988271713257 -1.1983563899993896 1.3401801586151123 -1.7633956670761108 0.005363825708627701 -1.086006760597229 0.6068276762962341 -0.47974681854248047 1.0807280540466309 -1.799715280532837 2.0041890144348145 0.5030139684677124 0.5314509868621826 1.1620692014694214 1.2094517946243286 -0.5353940725326538 0.8292495012283325 -0.9022159576416016 1.4749442338943481 -0.3674090802669525 -0.7597194910049438 -1.1136425733566284 -0.9940811395645142 1.5894793272018433 -1.3303788900375366 0.044082142412662506 -1.6389381885528564 -0.797267735004425 1.2690508365631104
-5.584972910583019 0.23062806576490402 3.377229906618595 -0.4113258421421051 -1.2130608558654785 1.214632272720337 -0.24224528670310974 0.704234778881073 -0.21074619889259338 1.1936482191085815 -1.4598640203475952 -0.42627134919166565 0.8457621932029724 0.32992371916770935 1.3248484134674072 -1.6389811038970947 -1.9703052043914795 1.4676798582077026 0.8923275470733643 -0.11010227352380753 -0.8184959888458252 -1.2430754899978638 0.16170553863048553 -0.7672560811042786 -0.8858429789543152 1.150521159172058 -1.9701820611953735 -0.9430676698684692 -1.2213871479034424 0.6667156219482422 0.09301019459962845 -1.0900002717971802 -2.3249106407165527 -0.0455387718975544 -1.3868114948272705 0.9306403398513794 -1.1199754476547241 0.7788575291633606 0.6235677003860474 0.9837387800216675 -0.8400879502296448 -0.8303629159927368 0.7416654229164124 -0.3523448407649994 -0.13953492045402527 -1.8805004358291626 -1.9413039684295654 -0.6785925626754761 1.2597028017044067 0.6598326563835144 -0.8311105370521545 1.558910608291626 1.4682049751281738 -1.0283206701278687 0.5022519826889038 1.1882874965667725 0.3522610366344452 -0.09677252173423767 -0.08666906505823135 1.3272610902786255 0.4723897874355316 -0.40699824690818787 -0.30987548828125 0.216502845287323 -0.04581400007009506 0.41946277022361755 -0.6555624008178711 -0.560539722442627 -1.269416332244873 0.5290568470954895 0.06494222581386566 0.25951847434043884 -1.3549256324768066 -0.17037127912044525 1.6560657024383545 -1.2229509353637695 -0.605423629283905 -1.6271204948425293 -0.38165077567100525 0.7597015500068665 0.24063560366630554 -0.22105731070041656 0.8049754500389099 0.2174626737833023 -1.3425251245498657 0.13694825768470764 -0.2123073786497116 -0.4426747262477875 -1.2681281566619873 0.6409606337547302 0.7045769691467285 0.5762490034103394 1.0467582941055298 0.5929460525512695 1.806301474571228 -0.010679315775632858 0.8445075750350952 1.0479929447174072 -0.7221468091011047 -1.9117660522460938 -0.19967038929462433 0.487723708152771 -0.8653766512870789 2.110992431640625 -1.17717444896698 1.1636197566986084 -1.7368249893188477 0.26877912878990173 -1.0179260969161987 0.3095266819000244 -0.5347707867622375 0.9372068047523499 -1.9317419528961182 2.1757216453552246 0.5989380478858948 0.3963281214237213 1.1412134170532227 1.0940308570861816 -0.5606169700622559 0.7629344463348389 -0.9274067878723145 1.574852466583252 -0.3803999125957489 -0.8407565951347351 -1.276618480682373 -1.1334402561187744 1.5584698915481567 -1.3716039657592773 0.012794768437743187 -1.6805397272109985 -0.7912004590034485 1.2748392820358276
-8.467413112521172 0.16225050203502178 5.093820206820965 -0.4756573438644409 -1.2234474420547485 1.1662406921386719 -0.2970265746116638 0.7050288915634155 -0.2115279883146286 1.1178865432739258 -1.5381397008895874 -0.35587048530578613 0.8101773262023926 0.28004732728004456 1.2930116653442383 -1.775780200958252 -2.116832733154297 1.4897798299789429 0.8281980752944946 -0.26528602838516235 -0.9295640587806702 -1.2325897216796875 0.14250579476356506 -0.7576693892478943 -0.8893225789070129 1.127340316772461 -2.0630741119384766 -0.9495576024055481 -1.1905629634857178 0.5868741273880005 0.09752165526151657 -1.1410554647445679 -2.445603847503662 -0.11759497225284576 -1.392681360244751 0.8535301685333252 -1.177245855331421 0.7480486631393433 0.5632427930831909 1.0746883153915405 -0.8942559957504272 -0.6670886278152466 0.7916284799575806 -0.4862619638442993 -0.2416999638080597 -1.9677627086639404 -2.038839340209961 -0.5939404368400574 1.204820990562439 0.6472296714782715 -0.7762106657028198 1.5905780792236328 1.5025743246078491 -1.0153993368148804 0.3982326090335846 1.2218105792999268 0.3984432816505432 -0.08916450291872025 -0.04093947634100914 1.3474630117416382 0.5572513937950134 -0.40243709087371826 -0.3085747957229614 0.21823306381702423 0.004743913188576698 0.3417178690433502 -0.6734574437141418 -0.4829801619052887 -1.3663687705993652 0.35948237776756287 -0.019316287711262703 0.28182220458984375 -1.3620316982269287 -0.16037888824939728 1.6308465003967285 -1.211899995803833 -0.5492987632751465 -1.5663671493530273 -0.37170907855033875 0.6358584761619568 0.1772269606590271 -0.11765050888061523 0.8746897578239441 0.15339678525924683 -1.3205180168151855 0.07522901892662048 -0.22372254729270935 -0.4526442289352417 -1.3208695650100708 0.7049800753593445 0.6829724311828613 0.561015784740448 1.1286072731018066 0.5721831917762756 1.818218469619751 -0.047929901629686356 0.8132466077804565 1.131308674812317 -0.6742994785308838 -2.12294340133667 -0.24523888528347015 0.5281424522399902 -0.8917548060417175 2.2252259254455566 -1.1903482675552368 1.1116269826889038 -1.7268221378326416 0.42308470606803894 -1.0321695804595947 0.16374146938323975 -0.5563598871231079 0.9008184671401978 -2.042443037033081 2.2553155422210693 0.6039871573448181 0.29565146565437317 1.1228909492492676 1.0135695934295654 -0.6120816469192505 0.708077609539032 -0.9341853857040405 1.6027995347976685 -0.34319403767585754 -0.9024500846862793 -1.3878816366195679 -1.2216726541519165 1.5243793725967407 -1.4054392576217651 0.035066913813352585 -1.6940885782241821 -0.7604867815971375 1.2849081754684448
-11.369173973798752 0.03932085819542408 6.787821464240551 -0.5457040071487427 -1.2313579320907593 1.105055332183838 -0.33234792947769165 0.6992908716201782 -0.194132462143898 1.0883116722106934 -1.6458547115325928 -0.3028792142868042 0.7740426659584045 0.2669195830821991 1.2467502355575562 -1.8633559942245483 -2.241060972213745 1.5052745342254639 0.800344705581665 -0.37582048773765564 -0.9650847315788269 -1.2407536506652832 0.13131923973560333 -0.7514858245849609 -0.9284613132476807 1.0966304540634155 -2.1123602390289307 -0.9370447993278503 -1.1304525136947632 0.500025749206543 0.11893121898174286 -1.2027604579925537 -2.505924701690674 -0.17053192853927612 -1.3875778913497925 0.7983905076980591 -1.2012722492218018 0.7288010716438293 0.521154522895813 1.1132128238677979 -0.9504913091659546 -0.6098989844322205 0.8120158314704895 -0.5626097917556763 -0.32411110401153564 -2.0111799240112305 -2.0916199684143066 -0.5322456955909729 1.179867148399353 0.6845883727073669 -0.74395751953125 1.628250002861023 1.5256662368774414 -1.018215537071228 0.31446826457977295 1.230376124382019 0.44543570280075073 -0.11067352443933487 0.0004617012746166438 1.3542838096618652 0.5906616449356079 -0.43087294697761536 -0.340412437915802 0.2076319009065628 0.028001420199871063 0.3047468364238739 -0.6685692667961121 -0.43327632546424866 -1.4526691436767578 0.2525905668735504 -0.043500687927007675 0.26891735196113586 -1.3478971719741821 -0.1366286277770996 1.6616848707199097 -1.1904515027999878 -0.5053012371063232 -1.4927616119384766 -0.3630406856536865 0.5756018161773682 0.11575228720903397 -0.02054005116224289 0.9133250713348389 0.09853081405162811 -1.3173679113388062 0.04034993797540665 -0.2172458916902542 -0.4479021728038788 -1.3373862504959106 0.7429837584495544 0.6814812421798706 0.5772233605384827 1.169230580329895 0.5601326823234558 1.8315091133117676 -0.04297127202153206 0.7903231978416443 1.2268234491348267 -0.5986558198928833 -2.28261661529541 -0.26258355379104614 0.5495038032531738 -0.9077739119529724 2.2711055278778076 -1.2313909530639648 1.0721327066421509 -1.732898235321045 0.4942510724067688 -1.0671024322509766 0.1025511771440506 -0.5565870404243469 0.8974618315696716 -2.107149839401245 2.2804415225982666 0.5798235535621643 0.2611019015312195 1.1089262962341309 0.9653403759002686 -0.6601107120513916 0.6555965542793274 -0.9428200721740723 1.6315500736236572 -0.293344110250473 -0.9765017628669739 -1.4456007480621338 -1.2994742393493652 1.5177861452102661 -1.4597346782684326 0.04522153362631798 -1.7012473344802856 -0.7414142489433289 1.2860182523727417
